<?xml version="1.0" encoding="iso-8859-1"?>
<!-- Generator: Adobe Illustrator 18.1.1, SVG Export Plug-In . SVG Version: 6.00 Build 0)  -->
<svg version="1.1" id="Capa_1" xmlns="http://www.w3.org/2000/svg" xmlns:xlink="http://www.w3.org/1999/xlink" x="0px" y="0px"
	 viewBox="0 0 29.189 29.189" style="enable-background:new 0 0 29.189 29.189;" xml:space="preserve">
<g>
	<path d="M21.168,2.63c0,0-1.451-1.457-2.055-2.057s0.471-0.572,0.471-0.572l8.951,0.123c0,0,0.65-0.049,0.654,0.576
		c-0.004,0.865-0.133,8.977-0.133,8.977s0.002,1.105-0.73,0.373s-1.902-1.902-1.902-1.902L8.15,26.429c0,0,1.166,1.168,1.902,1.895
		c0.729,0.736-0.375,0.732-0.375,0.732S1.568,29.189,0.7,29.189c-0.627,0-0.576-0.648-0.576-0.648L0,19.589
		c0,0-0.029-1.078,0.572-0.475c0.605,0.6,2.059,2.055,2.059,2.055L21.168,2.63z"/>
	<g>
	</g>
	<g>
	</g>
	<g>
	</g>
	<g>
	</g>
	<g>
	</g>
	<g>
	</g>
	<g>
	</g>
	<g>
	</g>
	<g>
	</g>
	<g>
	</g>
	<g>
	</g>
	<g>
	</g>
	<g>
	</g>
	<g>
	</g>
	<g>
	</g>
</g>
<g>
</g>
<g>
</g>
<g>
</g>
<g>
</g>
<g>
</g>
<g>
</g>
<g>
</g>
<g>
</g>
<g>
</g>
<g>
</g>
<g>
</g>
<g>
</g>
<g>
</g>
<g>
</g>
<g>
</g>
</svg>
